
  <svg width="20" height="20" viewBox="0 0 20 20" fill="none" xmlns="http://www.w3.org/2000/svg">
    <path
      fill-rule="evenodd"
      clip-rule="evenodd"
      d="M9.99935 16.6666C13.6812 16.6666 16.666 13.6819 16.666 9.99996C16.666 6.31806 13.6812 3.33329 9.99935 3.33329C6.31745 3.33329 3.33268 6.31806 3.33268 9.99996C3.33268 13.6819 6.31745 16.6666 9.99935 16.6666ZM9.99935 18.3333C14.6017 18.3333 18.3327 14.6023 18.3327 9.99996C18.3327 5.39759 14.6017 1.66663 9.99935 1.66663C5.39698 1.66663 1.66602 5.39759 1.66602 9.99996C1.66602 14.6023 5.39698 18.3333 9.99935 18.3333Z"
      fill="#7A7A7A"
    />
    <path
      fill-rule="evenodd"
      clip-rule="evenodd"
      d="M8.39846 7.79489L12.8143 6.67934C13.1202 6.60208 13.3976 6.87952 13.3204 7.18536L12.2048 11.6013C12.1298 11.8982 11.8979 12.1301 11.601 12.2051L7.18512 13.3206C6.87928 13.3979 6.60183 13.1205 6.67909 12.8146L7.79461 8.39874C7.86963 8.10178 8.1015 7.86991 8.39846 7.79489ZM9.9997 10.8333C10.4599 10.8333 10.833 10.4602 10.833 10C10.833 9.53976 10.4599 9.16667 9.9997 9.16667C9.53947 9.16667 9.16637 9.53976 9.16637 10C9.16637 10.4602 9.53947 10.8333 9.9997 10.8333Z"
      fill="#7A7A7A"
    />
  </svg>