  <svg width="20" height="20" viewBox="0 0 20 20" fill="none" xmlns="http://www.w3.org/2000/svg">
    <path
      fill-rule="evenodd"
      clip-rule="evenodd"
      d="M14.1461 10.8333H17.5V9.16663H14.1461C13.937 4.95552 12.1606 1.66663 10 1.66663C7.83944 1.66663 6.06296 4.95552 5.85391 9.16663H2.5V10.8333H5.85391C6.06296 15.0444 7.83944 18.3333 10 18.3333C12.1606 18.3333 13.937 15.0444 14.1461 10.8333ZM12.4772 10.8333C12.3809 12.5783 11.9881 14.0821 11.4556 15.1472C10.7901 16.478 10.1792 16.6666 10 16.6666C9.82079 16.6666 9.20986 16.478 8.54443 15.1472C8.0119 14.0821 7.61912 12.5783 7.52283 10.8333H12.4772ZM7.52283 9.16663C7.61912 7.42164 8.0119 5.91782 8.54443 4.85276C9.20986 3.5219 9.82079 3.33329 10 3.33329C10.1792 3.33329 10.7901 3.5219 11.4556 4.85276C11.9881 5.91782 12.3809 7.42164 12.4772 9.16663H7.52283Z"
      fill="#23422B"
    />
    <path
      fill-rule="evenodd"
      clip-rule="evenodd"
      d="M9.99935 16.6666C13.6812 16.6666 16.666 13.6819 16.666 9.99996C16.666 6.31806 13.6812 3.33329 9.99935 3.33329C6.31745 3.33329 3.33268 6.31806 3.33268 9.99996C3.33268 13.6819 6.31745 16.6666 9.99935 16.6666ZM9.99935 18.3333C14.6017 18.3333 18.3327 14.6023 18.3327 9.99996C18.3327 5.39759 14.6017 1.66663 9.99935 1.66663C5.39698 1.66663 1.66602 5.39759 1.66602 9.99996C1.66602 14.6023 5.39698 18.3333 9.99935 18.3333Z"
      fill="#23422B"
    />
  </svg>