  <svg width="20" height="20" viewBox="0 0 20 20" fill="none" xmlns="http://www.w3.org/2000/svg">
    <path
      fill-rule="evenodd"
      clip-rule="evenodd"
      d="M2.5 6.66667C2.5 4.36548 4.36548 2.5 6.66667 2.5H13.3333C15.6345 2.5 17.5 4.36548 17.5 6.66667V13.3333C17.5 15.6345 15.6345 17.5 13.3333 17.5H6.66667C4.36548 17.5 2.5 15.6345 2.5 13.3333V6.66667ZM6.66667 4.16667C5.28595 4.16667 4.16667 5.28595 4.16667 6.66667V13.3333C4.16667 14.714 5.28595 15.8333 6.66667 15.8333H13.3333C14.714 15.8333 15.8333 14.714 15.8333 13.3333V6.66667C15.8333 5.28595 14.714 4.16667 13.3333 4.16667H6.66667Z"
      fill="#23422B"
    />
    <path
      fill-rule="evenodd"
      clip-rule="evenodd"
      d="M13.7493 7.08329C14.2096 7.08329 14.5827 6.7102 14.5827 6.24996C14.5827 5.78972 14.2096 5.41663 13.7493 5.41663C13.2891 5.41663 12.916 5.78972 12.916 6.24996C12.916 6.7102 13.2891 7.08329 13.7493 7.08329ZM8.33268 9.99996C8.33268 9.07948 9.07887 8.33329 9.99935 8.33329C10.9198 8.33329 11.666 9.07948 11.666 9.99996C11.666 10.9204 10.9198 11.6666 9.99935 11.6666C9.07887 11.6666 8.33268 10.9204 8.33268 9.99996ZM9.99935 6.66663C8.1584 6.66663 6.66602 8.15901 6.66602 9.99996C6.66602 11.8409 8.1584 13.3333 9.99935 13.3333C11.8403 13.3333 13.3327 11.8409 13.3327 9.99996C13.3327 8.15901 11.8403 6.66663 9.99935 6.66663Z"
      fill="#23422B"
    />
  </svg>
