<svg width="151" height="25" viewBox="0 0 151 25" fill="none" xmlns="http://www.w3.org/2000/svg">
<path d="M130.408 24H128.528V14.22H130.228L130.428 15.72C131.048 14.6 132.288 13.94 133.668 13.94C136.248 13.94 137.428 15.52 137.428 18.02V24H135.548V18.44C135.548 16.46 134.628 15.66 133.188 15.66C131.428 15.66 130.408 16.92 130.408 18.82V24Z" fill="#23422B"/>
<path d="M115.277 24L112.077 14.22H114.017L115.637 19.3C115.857 20.02 116.057 20.76 116.237 21.62C116.397 20.76 116.657 19.94 116.877 19.3L118.517 14.22H120.437L122.057 19.3C122.217 19.78 122.537 20.92 122.697 21.62C122.857 20.84 123.037 20.16 123.317 19.3L124.957 14.22H126.917L123.577 24H121.797L120.097 18.76C119.777 17.78 119.577 17.02 119.477 16.48C119.377 16.96 119.197 17.6 118.837 18.78L117.137 24H115.277Z" fill="#23422B"/>
<path d="M105.646 24.24C103.546 24.24 102.306 23.06 102.306 21.28C102.306 19.48 103.646 18.36 105.946 18.18L109.026 17.94V17.66C109.026 16.02 108.046 15.44 106.726 15.44C105.146 15.44 104.246 16.14 104.246 17.32H102.606C102.606 15.28 104.286 13.94 106.806 13.94C109.226 13.94 110.866 15.22 110.866 17.86V24H109.266L109.066 22.42C108.566 23.54 107.226 24.24 105.646 24.24ZM106.186 22.78C107.966 22.78 109.046 21.62 109.046 19.78V19.26L106.546 19.46C104.886 19.62 104.206 20.26 104.206 21.22C104.206 22.26 104.966 22.78 106.186 22.78Z" fill="#23422B"/>
<path d="M93.4529 24H88.6729V9.54001H93.3728C97.6928 9.54001 100.613 12.46 100.613 16.78C100.613 21.08 97.7329 24 93.4529 24ZM93.2328 11.34H90.6329V22.18H93.3129C96.5329 22.18 98.5729 20.1 98.5729 16.78C98.5729 13.42 96.5328 11.34 93.2328 11.34Z" fill="#23422B"/>
<path d="M79.8635 24L78.7235 22.7C77.6035 23.7 76.0635 24.26 74.2435 24.26C71.1435 24.26 69.1035 22.66 69.1035 20.24C69.1035 18.46 70.2435 17.04 72.6435 15.8C71.4035 14.38 70.9435 13.5 70.9435 12.42C70.9435 10.6 72.3635 9.29999 74.4035 9.29999C76.3835 9.29999 77.7435 10.52 77.7435 12.3C77.7435 13.74 77.0035 14.86 75.1435 16.12L78.6035 20.06C78.9235 19.28 79.1035 18.32 79.1035 17.24H80.9235C80.9235 18.88 80.5235 20.32 79.8235 21.44L82.0635 24H79.8635ZM72.7235 12.4C72.7235 13.16 73.0635 13.76 74.1835 15.04C75.4035 14.3 75.9835 13.42 75.9835 12.34C75.9835 11.4 75.3835 10.82 74.3835 10.82C73.3635 10.82 72.7235 11.44 72.7235 12.4ZM71.0635 20.1C71.0635 21.68 72.3235 22.64 74.4235 22.64C75.7635 22.64 76.8435 22.24 77.6435 21.46L73.5835 16.86C71.7835 17.86 71.0635 18.8 71.0635 20.1Z" fill="#23422B"/>
<path d="M49.3146 24H47.4346V14.22H49.1146L49.2946 15.5C49.7946 14.58 50.8346 13.94 52.2146 13.94C53.7346 13.94 54.8146 14.7 55.3146 15.92C55.7746 14.7 56.9546 13.94 58.4746 13.94C60.7146 13.94 62.0746 15.34 62.0746 17.6V24H60.2346V18.06C60.2346 16.52 59.3746 15.64 58.0546 15.64C56.6346 15.64 55.6946 16.64 55.6946 18.2V24H53.8346V18.04C53.8346 16.5 52.9946 15.66 51.6746 15.66C50.2546 15.66 49.3146 16.64 49.3146 18.2V24Z" fill="#23422B"/>
<path d="M42.8468 14.22H44.7068V24H43.0268L42.8268 22.52C42.2668 23.54 40.9668 24.24 39.5268 24.24C37.2468 24.24 35.9668 22.7 35.9668 20.3V14.22H37.8468V19.68C37.8468 21.78 38.7468 22.58 40.1868 22.58C41.9068 22.58 42.8468 21.48 42.8468 19.38V14.22Z" fill="#23422B"/>
<path d="M33.3195 24H31.4395V9.28H33.3195V24Z" fill="#23422B"/>
<path d="M28.632 24H26.752V9.28H28.632V24Z" fill="#23422B"/>
<path d="M18.8879 24.24C16.7879 24.24 15.5479 23.06 15.5479 21.28C15.5479 19.48 16.8879 18.36 19.1879 18.18L22.2679 17.94V17.66C22.2679 16.02 21.2879 15.44 19.9679 15.44C18.3879 15.44 17.4879 16.14 17.4879 17.32H15.8479C15.8479 15.28 17.5279 13.94 20.0479 13.94C22.4679 13.94 24.1079 15.22 24.1079 17.86V24H22.5079L22.3079 22.42C21.8079 23.54 20.4679 24.24 18.8879 24.24ZM19.4279 22.78C21.2079 22.78 22.2879 21.62 22.2879 19.78V19.26L19.7879 19.46C18.1279 19.62 17.4479 20.26 17.4479 21.22C17.4479 22.26 18.2079 22.78 19.4279 22.78Z" fill="#23422B"/>
<path d="M7.68031 24.22C3.56031 24.22 0.820312 21.26 0.820312 16.78C0.820312 12.32 3.64031 9.29999 7.78031 9.29999C11.0403 9.29999 13.5403 11.24 14.0803 14.2H11.9803C11.4403 12.32 9.82031 11.18 7.72031 11.18C4.80031 11.18 2.88031 13.38 2.88031 16.76C2.88031 20.14 4.80031 22.34 7.72031 22.34C9.84031 22.34 11.5203 21.2 12.0603 19.42H14.1403C13.5203 22.3 10.9403 24.22 7.68031 24.22Z" fill="#23422B"/>
<path d="M150.123 6.54002H149.263V8.00002H148.323V6.54002H144.583V5.67002L147.993 0.77002H149.263V5.67002H150.123V6.54002ZM145.643 5.67002H148.323V1.81002L145.643 5.67002Z" fill="#23422B"/>
<path d="M144.026 7.99002L139.146 8.00002V7.25002L141.476 5.24002C142.646 4.23002 142.976 3.74002 142.976 2.97002C142.976 2.06001 142.456 1.52002 141.586 1.52002C140.696 1.52002 140.116 2.17002 140.096 3.20002H139.116C139.146 1.65001 140.126 0.640015 141.596 0.640015C143.046 0.640015 143.976 1.52002 143.976 2.91002C143.976 3.94001 143.466 4.67002 142.186 5.78001L140.686 7.08002H144.026V7.99002Z" fill="#23422B"/>
<path d="M132.242 4.39C132.242 2.15 133.402 0.630005 135.222 0.630005C137.032 0.630005 138.192 2.15 138.192 4.39C138.192 6.64001 137.082 8.13001 135.222 8.13001C133.352 8.13001 132.242 6.64001 132.242 4.39ZM133.212 4.39C133.212 6.17 133.952 7.25001 135.222 7.25001C136.492 7.25001 137.222 6.17 137.222 4.39C137.222 2.59 136.492 1.51 135.222 1.51C133.952 1.51 133.212 2.59 133.212 4.39Z" fill="#23422B"/>
<path d="M131.341 7.99002L126.461 8.00002V7.25002L128.791 5.24002C129.961 4.23002 130.291 3.74002 130.291 2.97002C130.291 2.06001 129.771 1.52002 128.901 1.52002C128.011 1.52002 127.431 2.17002 127.411 3.20002H126.431C126.461 1.65001 127.441 0.640015 128.911 0.640015C130.361 0.640015 131.291 1.52002 131.291 2.91002C131.291 3.94001 130.781 4.67002 129.501 5.78001L128.001 7.08002H131.341V7.99002Z" fill="#23422B"/>
</svg>
